<svg xmlns="http://www.w3.org/2000/svg" xmlns:xlink="http://www.w3.org/1999/xlink" width="1001" zoomAndPan="magnify" viewBox="0 0 750.75 278.250005" height="371" preserveAspectRatio="xMidYMid meet" version="1.2"><defs><clipPath id="885db58f67"><path d="M 15 37.386719 L 215 37.386719 L 215 222.140625 L 15 222.140625 Z M 15 37.386719 "/></clipPath></defs><g id="2762fc3fee"><g style="fill:#000000;fill-opacity:1;"><g transform="translate(220.361491, 179.455128)"><path style="stroke:none" d="M 5.984375 0 L 5.984375 -56.703125 L 15.6875 -56.703125 L 15.6875 -33.9375 L 30.90625 -33.9375 L 30.90625 -56.703125 L 40.625 -56.703125 L 40.625 0 L 30.90625 0 L 30.90625 -24.9375 L 15.6875 -24.9375 L 15.6875 0 Z M 5.984375 0 "/></g></g><g style="fill:#000000;fill-opacity:1;"><g transform="translate(266.957359, 179.455128)"><path style="stroke:none" d="M 23.296875 0.703125 C 19.671875 0.703125 16.523438 0.015625 13.859375 -1.359375 C 11.191406 -2.734375 9.117188 -4.675781 7.640625 -7.1875 C 6.171875 -9.695312 5.4375 -12.660156 5.4375 -16.078125 L 5.4375 -26.640625 C 5.4375 -30.054688 6.171875 -33.019531 7.640625 -35.53125 C 9.117188 -38.039062 11.191406 -39.984375 13.859375 -41.359375 C 16.523438 -42.734375 19.671875 -43.421875 23.296875 -43.421875 C 26.972656 -43.421875 30.128906 -42.734375 32.765625 -41.359375 C 35.410156 -39.984375 37.472656 -38.039062 38.953125 -35.53125 C 40.429688 -33.019531 41.171875 -30.082031 41.171875 -26.71875 L 41.171875 -16.078125 C 41.171875 -12.660156 40.429688 -9.695312 38.953125 -7.1875 C 37.472656 -4.675781 35.410156 -2.734375 32.765625 -1.359375 C 30.128906 0.015625 26.972656 0.703125 23.296875 0.703125 Z M 23.296875 -7.765625 C 25.890625 -7.765625 27.894531 -8.476562 29.3125 -9.90625 C 30.738281 -11.332031 31.453125 -13.390625 31.453125 -16.078125 L 31.453125 -26.640625 C 31.453125 -29.390625 30.738281 -31.460938 29.3125 -32.859375 C 27.894531 -34.253906 25.890625 -34.953125 23.296875 -34.953125 C 20.765625 -34.953125 18.769531 -34.253906 17.3125 -32.859375 C 15.863281 -31.460938 15.140625 -29.390625 15.140625 -26.640625 L 15.140625 -16.078125 C 15.140625 -13.390625 15.863281 -11.332031 17.3125 -9.90625 C 18.769531 -8.476562 20.765625 -7.765625 23.296875 -7.765625 Z M 23.296875 -7.765625 "/></g></g><g style="fill:#000000;fill-opacity:1;"><g transform="translate(313.553227, 179.455128)"><path style="stroke:none" d="M 23.296875 0.78125 C 17.859375 0.78125 13.585938 -0.734375 10.484375 -3.765625 C 7.378906 -6.796875 5.828125 -10.925781 5.828125 -16.15625 L 5.828125 -42.71875 L 15.53125 -42.71875 L 15.53125 -16.234375 C 15.53125 -13.484375 16.203125 -11.367188 17.546875 -9.890625 C 18.898438 -8.421875 20.816406 -7.6875 23.296875 -7.6875 C 25.734375 -7.6875 27.632812 -8.421875 29 -9.890625 C 30.375 -11.367188 31.0625 -13.484375 31.0625 -16.234375 L 31.0625 -42.71875 L 40.78125 -42.71875 L 40.78125 -16.15625 C 40.78125 -10.925781 39.195312 -6.796875 36.03125 -3.765625 C 32.875 -0.734375 28.628906 0.78125 23.296875 0.78125 Z M 23.296875 0.78125 "/></g></g><g style="fill:#000000;fill-opacity:1;"><g transform="translate(360.149094, 179.455128)"><path style="stroke:none" d="M 21.671875 0.703125 C 18.410156 0.703125 15.5625 0.1875 13.125 -0.84375 C 10.6875 -1.882812 8.78125 -3.320312 7.40625 -5.15625 C 6.039062 -7 5.304688 -9.164062 5.203125 -11.65625 L 14.90625 -11.65625 C 15.007812 -10.300781 15.671875 -9.207031 16.890625 -8.375 C 18.109375 -7.550781 19.703125 -7.140625 21.671875 -7.140625 L 25.09375 -7.140625 C 27.46875 -7.140625 29.25 -7.601562 30.4375 -8.53125 C 31.632812 -9.46875 32.234375 -10.738281 32.234375 -12.34375 C 32.234375 -13.851562 31.703125 -15.035156 30.640625 -15.890625 C 29.578125 -16.742188 27.929688 -17.296875 25.703125 -17.546875 L 20.421875 -18.328125 C 15.554688 -19.003906 11.984375 -20.300781 9.703125 -22.21875 C 7.429688 -24.132812 6.296875 -27.003906 6.296875 -30.828125 C 6.296875 -34.816406 7.640625 -37.910156 10.328125 -40.109375 C 13.023438 -42.316406 16.988281 -43.421875 22.21875 -43.421875 L 25.171875 -43.421875 C 29.929688 -43.421875 33.734375 -42.359375 36.578125 -40.234375 C 39.429688 -38.109375 40.960938 -35.257812 41.171875 -31.6875 L 31.453125 -31.6875 C 31.296875 -32.832031 30.660156 -33.765625 29.546875 -34.484375 C 28.441406 -35.210938 26.984375 -35.578125 25.171875 -35.578125 L 22.21875 -35.578125 C 19.988281 -35.578125 18.367188 -35.175781 17.359375 -34.375 C 16.347656 -33.570312 15.84375 -32.390625 15.84375 -30.828125 C 15.84375 -29.378906 16.28125 -28.304688 17.15625 -27.609375 C 18.039062 -26.910156 19.46875 -26.40625 21.4375 -26.09375 L 26.953125 -25.328125 C 32.023438 -24.597656 35.765625 -23.234375 38.171875 -21.234375 C 40.578125 -19.242188 41.78125 -16.304688 41.78125 -12.421875 C 41.78125 -8.285156 40.367188 -5.0625 37.546875 -2.75 C 34.734375 -0.445312 30.582031 0.703125 25.09375 0.703125 Z M 21.671875 0.703125 "/></g></g><g style="fill:#000000;fill-opacity:1;"><g transform="translate(406.744962, 179.455128)"><path style="stroke:none" d="M 23.375 0.78125 C 19.75 0.78125 16.585938 0.0820312 13.890625 -1.3125 C 11.203125 -2.71875 9.117188 -4.675781 7.640625 -7.1875 C 6.171875 -9.695312 5.4375 -12.632812 5.4375 -16 L 5.4375 -26.71875 C 5.4375 -30.082031 6.171875 -33.019531 7.640625 -35.53125 C 9.117188 -38.039062 11.203125 -39.992188 13.890625 -41.390625 C 16.585938 -42.796875 19.75 -43.5 23.375 -43.5 C 26.945312 -43.5 30.066406 -42.796875 32.734375 -41.390625 C 35.398438 -39.992188 37.472656 -38.039062 38.953125 -35.53125 C 40.429688 -33.019531 41.171875 -30.082031 41.171875 -26.71875 L 41.171875 -19.03125 L 14.828125 -19.03125 L 14.828125 -16 C 14.828125 -13 15.550781 -10.734375 17 -9.203125 C 18.457031 -7.671875 20.609375 -6.90625 23.453125 -6.90625 C 25.628906 -6.90625 27.390625 -7.28125 28.734375 -8.03125 C 30.085938 -8.789062 30.941406 -9.894531 31.296875 -11.34375 L 40.859375 -11.34375 C 40.128906 -7.664062 38.171875 -4.722656 34.984375 -2.515625 C 31.804688 -0.316406 27.9375 0.78125 23.375 0.78125 Z M 31.765625 -24.46875 L 31.765625 -26.796875 C 31.765625 -29.742188 31.066406 -32.007812 29.671875 -33.59375 C 28.273438 -35.175781 26.175781 -35.96875 23.375 -35.96875 C 20.582031 -35.96875 18.457031 -35.160156 17 -33.546875 C 15.550781 -31.941406 14.828125 -29.664062 14.828125 -26.71875 L 14.828125 -25.09375 L 32.46875 -25.25 Z M 31.765625 -24.46875 "/></g></g><g style="fill:#000000;fill-opacity:1;"><g transform="translate(453.34083, 179.455128)"><path style="stroke:none" d="M 2.171875 0 L 17.859375 -29.046875 L 3.109375 -56.703125 L 13.984375 -56.703125 L 21.125 -42.484375 C 21.644531 -41.453125 22.109375 -40.457031 22.515625 -39.5 C 22.929688 -38.539062 23.242188 -37.800781 23.453125 -37.28125 C 23.609375 -37.800781 23.894531 -38.539062 24.3125 -39.5 C 24.726562 -40.457031 25.191406 -41.453125 25.703125 -42.484375 L 32.9375 -56.703125 L 43.5 -56.703125 L 28.734375 -29.28125 L 44.421875 0 L 33.546875 0 L 25.546875 -15.6875 C 25.035156 -16.726562 24.554688 -17.738281 24.109375 -18.71875 C 23.671875 -19.695312 23.347656 -20.472656 23.140625 -21.046875 C 22.929688 -20.472656 22.617188 -19.695312 22.203125 -18.71875 C 21.796875 -17.738281 21.332031 -16.726562 20.8125 -15.6875 L 12.734375 0 Z M 2.171875 0 "/></g></g><g style="fill:#000000;fill-opacity:1;"><g transform="translate(499.936698, 179.455128)"><path style="stroke:none" d="M 5.984375 13.984375 L 5.984375 -42.71875 L 15.453125 -42.71875 L 15.453125 -34.5625 L 17.625 -34.5625 L 15.453125 -32.3125 C 15.453125 -35.78125 16.488281 -38.507812 18.5625 -40.5 C 20.632812 -42.5 23.429688 -43.5 26.953125 -43.5 C 31.253906 -43.5 34.695312 -42.019531 37.28125 -39.0625 C 39.875 -36.113281 41.171875 -32.15625 41.171875 -27.1875 L 41.171875 -15.609375 C 41.171875 -12.296875 40.585938 -9.410156 39.421875 -6.953125 C 38.253906 -4.492188 36.609375 -2.585938 34.484375 -1.234375 C 32.359375 0.109375 29.847656 0.78125 26.953125 0.78125 C 23.429688 0.78125 20.632812 -0.210938 18.5625 -2.203125 C 16.488281 -4.203125 15.453125 -6.9375 15.453125 -10.40625 L 17.625 -8.15625 L 15.375 -8.15625 L 15.6875 2.015625 L 15.6875 13.984375 Z M 23.53125 -7.609375 C 26.019531 -7.609375 27.960938 -8.332031 29.359375 -9.78125 C 30.753906 -11.238281 31.453125 -13.3125 31.453125 -16 L 31.453125 -26.71875 C 31.453125 -29.414062 30.753906 -31.488281 29.359375 -32.9375 C 27.960938 -34.382812 26.019531 -35.109375 23.53125 -35.109375 C 21.101562 -35.109375 19.1875 -34.367188 17.78125 -32.890625 C 16.382812 -31.421875 15.6875 -29.363281 15.6875 -26.71875 L 15.6875 -16 C 15.6875 -13.363281 16.382812 -11.304688 17.78125 -9.828125 C 19.1875 -8.347656 21.101562 -7.609375 23.53125 -7.609375 Z M 23.53125 -7.609375 "/></g></g><g style="fill:#000000;fill-opacity:1;"><g transform="translate(546.532566, 179.455128)"><path style="stroke:none" d="M 23.375 0.78125 C 19.75 0.78125 16.585938 0.0820312 13.890625 -1.3125 C 11.203125 -2.71875 9.117188 -4.675781 7.640625 -7.1875 C 6.171875 -9.695312 5.4375 -12.632812 5.4375 -16 L 5.4375 -26.71875 C 5.4375 -30.082031 6.171875 -33.019531 7.640625 -35.53125 C 9.117188 -38.039062 11.203125 -39.992188 13.890625 -41.390625 C 16.585938 -42.796875 19.75 -43.5 23.375 -43.5 C 26.945312 -43.5 30.066406 -42.796875 32.734375 -41.390625 C 35.398438 -39.992188 37.472656 -38.039062 38.953125 -35.53125 C 40.429688 -33.019531 41.171875 -30.082031 41.171875 -26.71875 L 41.171875 -19.03125 L 14.828125 -19.03125 L 14.828125 -16 C 14.828125 -13 15.550781 -10.734375 17 -9.203125 C 18.457031 -7.671875 20.609375 -6.90625 23.453125 -6.90625 C 25.628906 -6.90625 27.390625 -7.28125 28.734375 -8.03125 C 30.085938 -8.789062 30.941406 -9.894531 31.296875 -11.34375 L 40.859375 -11.34375 C 40.128906 -7.664062 38.171875 -4.722656 34.984375 -2.515625 C 31.804688 -0.316406 27.9375 0.78125 23.375 0.78125 Z M 31.765625 -24.46875 L 31.765625 -26.796875 C 31.765625 -29.742188 31.066406 -32.007812 29.671875 -33.59375 C 28.273438 -35.175781 26.175781 -35.96875 23.375 -35.96875 C 20.582031 -35.96875 18.457031 -35.160156 17 -33.546875 C 15.550781 -31.941406 14.828125 -29.664062 14.828125 -26.71875 L 14.828125 -25.09375 L 32.46875 -25.25 Z M 31.765625 -24.46875 "/></g></g><g style="fill:#000000;fill-opacity:1;"><g transform="translate(593.128434, 179.455128)"><path style="stroke:none" d="M 5.984375 0 L 5.984375 -42.71875 L 15.453125 -42.71875 L 15.453125 -34.5625 L 18.09375 -34.5625 L 15.453125 -32.3125 C 15.453125 -35.832031 16.472656 -38.578125 18.515625 -40.546875 C 20.566406 -42.515625 23.378906 -43.5 26.953125 -43.5 C 31.148438 -43.5 34.503906 -42.097656 37.015625 -39.296875 C 39.523438 -36.503906 40.78125 -32.753906 40.78125 -28.046875 L 40.78125 0 L 31.0625 0 L 31.0625 -27.03125 C 31.0625 -29.613281 30.390625 -31.601562 29.046875 -33 C 27.703125 -34.40625 25.8125 -35.109375 23.375 -35.109375 C 21 -35.109375 19.125 -34.382812 17.75 -32.9375 C 16.375 -31.488281 15.6875 -29.414062 15.6875 -26.71875 L 15.6875 0 Z M 5.984375 0 "/></g></g><g style="fill:#000000;fill-opacity:1;"><g transform="translate(675.26461, 179.455128)"><path style="stroke:none" d="M 23.375 0.78125 C 19.75 0.78125 16.585938 0.0820312 13.890625 -1.3125 C 11.203125 -2.71875 9.117188 -4.675781 7.640625 -7.1875 C 6.171875 -9.695312 5.4375 -12.632812 5.4375 -16 L 5.4375 -26.71875 C 5.4375 -30.082031 6.171875 -33.019531 7.640625 -35.53125 C 9.117188 -38.039062 11.203125 -39.992188 13.890625 -41.390625 C 16.585938 -42.796875 19.75 -43.5 23.375 -43.5 C 26.945312 -43.5 30.066406 -42.796875 32.734375 -41.390625 C 35.398438 -39.992188 37.472656 -38.039062 38.953125 -35.53125 C 40.429688 -33.019531 41.171875 -30.082031 41.171875 -26.71875 L 41.171875 -19.03125 L 14.828125 -19.03125 L 14.828125 -16 C 14.828125 -13 15.550781 -10.734375 17 -9.203125 C 18.457031 -7.671875 20.609375 -6.90625 23.453125 -6.90625 C 25.628906 -6.90625 27.390625 -7.28125 28.734375 -8.03125 C 30.085938 -8.789062 30.941406 -9.894531 31.296875 -11.34375 L 40.859375 -11.34375 C 40.128906 -7.664062 38.171875 -4.722656 34.984375 -2.515625 C 31.804688 -0.316406 27.9375 0.78125 23.375 0.78125 Z M 31.765625 -24.46875 L 31.765625 -26.796875 C 31.765625 -29.742188 31.066406 -32.007812 29.671875 -33.59375 C 28.273438 -35.175781 26.175781 -35.96875 23.375 -35.96875 C 20.582031 -35.96875 18.457031 -35.160156 17 -33.546875 C 15.550781 -31.941406 14.828125 -29.664062 14.828125 -26.71875 L 14.828125 -25.09375 L 32.46875 -25.25 Z M 31.765625 -24.46875 "/></g></g><g style="fill:#000000;fill-opacity:1;"><g transform="translate(638.904409, 181.441231)"><path style="stroke:none" d="M 16.296875 8.484375 L 16.296875 0.484375 C 12.335938 0.160156 9.21875 -1.097656 6.9375 -3.296875 C 4.65625 -5.503906 3.492188 -8.363281 3.453125 -11.875 L 11.03125 -11.875 C 11.03125 -10.382812 11.492188 -9.144531 12.421875 -8.15625 C 13.347656 -7.164062 14.640625 -6.507812 16.296875 -6.1875 L 16.296875 -19.03125 L 15.21875 -19.328125 C 11.738281 -20.222656 9.054688 -21.820312 7.171875 -24.125 C 5.296875 -26.425781 4.359375 -29.210938 4.359375 -32.484375 C 4.359375 -35.921875 5.425781 -38.738281 7.5625 -40.9375 C 9.707031 -43.144531 12.617188 -44.410156 16.296875 -44.734375 L 16.296875 -52.734375 L 20.0625 -52.734375 L 20.0625 -44.796875 C 23.78125 -44.472656 26.726562 -43.226562 28.90625 -41.0625 C 31.09375 -38.894531 32.207031 -36.097656 32.25 -32.671875 L 24.671875 -32.671875 C 24.671875 -34.117188 24.273438 -35.304688 23.484375 -36.234375 C 22.691406 -37.171875 21.550781 -37.78125 20.0625 -38.0625 L 20.0625 -25.8125 L 22.0625 -25.28125 C 25.570312 -24.382812 28.253906 -22.796875 30.109375 -20.515625 C 31.972656 -18.234375 32.90625 -15.414062 32.90625 -12.0625 C 32.90625 -8.539062 31.742188 -5.640625 29.421875 -3.359375 C 27.097656 -1.078125 23.976562 0.222656 20.0625 0.546875 L 20.0625 8.484375 Z M 20.0625 -6.125 C 21.71875 -6.363281 23.007812 -6.976562 23.9375 -7.96875 C 24.863281 -8.957031 25.328125 -10.222656 25.328125 -11.765625 C 25.328125 -13.535156 24.703125 -15.003906 23.453125 -16.171875 C 22.203125 -17.347656 20.484375 -18 18.296875 -18.125 L 20.0625 -20.421875 Z M 16.296875 -23.515625 L 16.296875 -38.0625 C 14.890625 -37.78125 13.8125 -37.203125 13.0625 -36.328125 C 12.3125 -35.460938 11.9375 -34.320312 11.9375 -32.90625 C 11.9375 -31.09375 12.550781 -29.585938 13.78125 -28.390625 C 15.019531 -27.203125 16.75 -26.566406 18.96875 -26.484375 Z M 16.296875 -23.515625 "/></g></g><g clip-rule="nonzero" clip-path="url(#885db58f67)"><path style=" stroke:none;fill-rule:nonzero;fill:#231f20;fill-opacity:1;" d="M 192.585938 129.84375 C 192.585938 133.480469 192.585938 137.15625 192.585938 140.792969 C 192.585938 166.085938 192.585938 191.414062 192.585938 216.707031 C 192.585938 219.648438 190.089844 222.140625 187.148438 222.140625 C 181.257812 222.140625 175.371094 222.140625 169.484375 222.140625 C 127.621094 222.140625 85.714844 222.140625 43.851562 222.140625 C 40.90625 222.140625 38.414062 219.648438 38.414062 216.707031 C 38.414062 213.070312 38.414062 209.390625 38.414062 205.753906 C 38.414062 180.464844 38.414062 155.136719 38.414062 129.84375 C 38.414062 122.816406 49.289062 122.859375 49.289062 129.84375 C 49.289062 133.480469 49.289062 137.15625 49.289062 140.792969 C 49.289062 164.285156 49.289062 187.777344 49.289062 211.269531 C 53.375 211.269531 57.421875 211.269531 61.511719 211.269531 C 101.578125 211.269531 141.644531 211.269531 181.710938 211.269531 C 181.710938 209.433594 181.710938 207.59375 181.710938 205.753906 C 181.710938 180.464844 181.710938 155.136719 181.710938 129.84375 C 181.710938 122.859375 192.585938 122.859375 192.585938 129.84375 Z M 212.78125 124.003906 C 185.429688 99.285156 158.121094 74.605469 130.808594 49.929688 C 126.925781 46.417969 123.082031 42.945312 119.199219 39.429688 C 116.949219 37.386719 113.761719 37.386719 111.511719 39.429688 C 84.078125 64.148438 56.644531 88.824219 29.214844 113.503906 C 25.328125 117.015625 21.445312 120.488281 17.5625 124.003906 C 12.328125 128.699219 20.054688 136.382812 25.246094 131.683594 C 52.679688 107.007812 80.074219 82.328125 107.503906 57.652344 C 110.121094 55.324219 112.699219 52.996094 115.3125 50.625 C 141.355469 74.15625 167.398438 97.691406 193.441406 121.183594 C 197.328125 124.695312 201.171875 128.167969 205.054688 131.683594 C 210.246094 136.339844 217.972656 128.699219 212.78125 124.003906 Z M 170.996094 68.804688 C 170.996094 66.640625 170.996094 64.515625 170.996094 62.351562 C 175.414062 62.351562 179.828125 62.351562 184.246094 62.351562 C 184.246094 72.074219 184.246094 81.796875 184.246094 91.523438 C 184.246094 98.507812 195.121094 98.550781 195.121094 91.523438 C 195.121094 80 195.121094 68.480469 195.121094 56.917969 C 195.121094 53.976562 192.625 51.484375 189.683594 51.484375 C 181.628906 51.484375 173.613281 51.484375 165.558594 51.484375 C 162.617188 51.484375 160.121094 53.976562 160.121094 56.917969 C 160.121094 60.878906 160.121094 64.84375 160.121094 68.804688 C 160.082031 75.832031 170.996094 75.832031 170.996094 68.804688 Z M 170.996094 68.804688 "/></g><g style="fill:#00bf63;fill-opacity:1;"><g transform="translate(77.054354, 175.333057)"><path style="stroke:none" d="M 17.484375 8.90625 L 17.484375 0.578125 C 13.492188 0.234375 10.363281 -1.046875 8.09375 -3.265625 C 5.832031 -5.492188 4.660156 -8.429688 4.578125 -12.078125 L 10.296875 -12.078125 C 10.296875 -10.003906 10.921875 -8.304688 12.171875 -6.984375 C 13.421875 -5.671875 15.191406 -4.867188 17.484375 -4.578125 L 17.484375 -21.234375 L 15.765625 -21.734375 C 12.585938 -22.710938 10.140625 -24.34375 8.421875 -26.625 C 6.703125 -28.914062 5.84375 -31.609375 5.84375 -34.703125 C 5.84375 -38.097656 6.890625 -40.894531 8.984375 -43.09375 C 11.085938 -45.300781 13.921875 -46.570312 17.484375 -46.90625 L 17.484375 -55.296875 L 21.296875 -55.296875 L 21.296875 -46.96875 C 24.804688 -46.632812 27.617188 -45.363281 29.734375 -43.15625 C 31.859375 -40.957031 32.941406 -38.117188 32.984375 -34.640625 L 27.265625 -34.640625 C 27.265625 -36.628906 26.742188 -38.25 25.703125 -39.5 C 24.671875 -40.75 23.203125 -41.523438 21.296875 -41.828125 L 21.296875 -26.0625 L 23.828125 -25.234375 C 26.921875 -24.253906 29.316406 -22.597656 31.015625 -20.265625 C 32.710938 -17.941406 33.5625 -15.210938 33.5625 -12.078125 C 33.5625 -8.597656 32.445312 -5.710938 30.21875 -3.421875 C 28 -1.140625 25.023438 0.191406 21.296875 0.578125 L 21.296875 8.90625 Z M 21.296875 -4.578125 C 23.367188 -4.910156 24.976562 -5.710938 26.125 -6.984375 C 27.269531 -8.265625 27.84375 -9.921875 27.84375 -11.953125 C 27.84375 -13.816406 27.34375 -15.445312 26.34375 -16.84375 C 25.351562 -18.238281 23.925781 -19.210938 22.0625 -19.765625 L 21.296875 -20.015625 Z M 17.484375 -24.71875 L 17.484375 -41.828125 C 15.617188 -41.523438 14.164062 -40.800781 13.125 -39.65625 C 12.082031 -38.519531 11.5625 -37.039062 11.5625 -35.21875 C 11.5625 -33.007812 12.238281 -31.148438 13.59375 -29.640625 C 14.957031 -28.140625 16.910156 -27.203125 19.453125 -26.828125 Z M 17.484375 -24.71875 "/></g></g><g style="fill:#00bf63;fill-opacity:1;"><g transform="translate(115.187526, 175.333057)"><path style="stroke:none" d="M 17.484375 8.90625 L 17.484375 0.578125 C 13.492188 0.234375 10.363281 -1.046875 8.09375 -3.265625 C 5.832031 -5.492188 4.660156 -8.429688 4.578125 -12.078125 L 10.296875 -12.078125 C 10.296875 -10.003906 10.921875 -8.304688 12.171875 -6.984375 C 13.421875 -5.671875 15.191406 -4.867188 17.484375 -4.578125 L 17.484375 -21.234375 L 15.765625 -21.734375 C 12.585938 -22.710938 10.140625 -24.34375 8.421875 -26.625 C 6.703125 -28.914062 5.84375 -31.609375 5.84375 -34.703125 C 5.84375 -38.097656 6.890625 -40.894531 8.984375 -43.09375 C 11.085938 -45.300781 13.921875 -46.570312 17.484375 -46.90625 L 17.484375 -55.296875 L 21.296875 -55.296875 L 21.296875 -46.96875 C 24.804688 -46.632812 27.617188 -45.363281 29.734375 -43.15625 C 31.859375 -40.957031 32.941406 -38.117188 32.984375 -34.640625 L 27.265625 -34.640625 C 27.265625 -36.628906 26.742188 -38.25 25.703125 -39.5 C 24.671875 -40.75 23.203125 -41.523438 21.296875 -41.828125 L 21.296875 -26.0625 L 23.828125 -25.234375 C 26.921875 -24.253906 29.316406 -22.597656 31.015625 -20.265625 C 32.710938 -17.941406 33.5625 -15.210938 33.5625 -12.078125 C 33.5625 -8.597656 32.445312 -5.710938 30.21875 -3.421875 C 28 -1.140625 25.023438 0.191406 21.296875 0.578125 L 21.296875 8.90625 Z M 21.296875 -4.578125 C 23.367188 -4.910156 24.976562 -5.710938 26.125 -6.984375 C 27.269531 -8.265625 27.84375 -9.921875 27.84375 -11.953125 C 27.84375 -13.816406 27.34375 -15.445312 26.34375 -16.84375 C 25.351562 -18.238281 23.925781 -19.210938 22.0625 -19.765625 L 21.296875 -20.015625 Z M 17.484375 -24.71875 L 17.484375 -41.828125 C 15.617188 -41.523438 14.164062 -40.800781 13.125 -39.65625 C 12.082031 -38.519531 11.5625 -37.039062 11.5625 -35.21875 C 11.5625 -33.007812 12.238281 -31.148438 13.59375 -29.640625 C 14.957031 -28.140625 16.910156 -27.203125 19.453125 -26.828125 Z M 17.484375 -24.71875 "/></g></g></g></svg>